<?xml version="1.0" encoding="UTF-8" standalone="no"?>
<!-- Created with Inkscape (http://www.inkscape.org/) -->

<svg
   xmlns:dc="http://purl.org/dc/elements/1.1/"
   xmlns:cc="http://creativecommons.org/ns#"
   xmlns:rdf="http://www.w3.org/1999/02/22-rdf-syntax-ns#"
   xmlns:svg="http://www.w3.org/2000/svg"
   xmlns="http://www.w3.org/2000/svg"
   version="1.1"
   width="645.63501"
   height="437.30374"
   id="svg2"
   xml:space="preserve"><metadata
     id="metadata8"><rdf:RDF><cc:Work
         rdf:about=""><dc:format>image/svg+xml</dc:format><dc:type
           rdf:resource="http://purl.org/dc/dcmitype/StillImage" /><dc:title></dc:title></cc:Work></rdf:RDF></metadata><defs
     id="defs6"><clipPath
       id="clipPath16"><path
         d="M 178.257,273.528 559.964,371.725 315.498,555.367 178.257,273.528 z"
         id="path18" /></clipPath><linearGradient
       x1="0"
       y1="0"
       x2="1"
       y2="0"
       id="linearGradient24"
       gradientUnits="userSpaceOnUse"
       gradientTransform="matrix(0,281.84006,281.84006,0,369.11023,273.52777)"
       spreadMethod="pad"><stop
         id="stop26"
         style="stop-color:#004c67;stop-opacity:1"
         offset="0" /><stop
         id="stop28"
         style="stop-color:#00aae7;stop-opacity:1"
         offset="1" /></linearGradient><clipPath
       id="clipPath36"><path
         d="m 43.456,228.204 516.508,0 0,349.844 -516.508,0 0,-349.844 z"
         id="path38" /></clipPath><clipPath
       id="clipPath44"><path
         d="m 36.7239,584.942 273.6011,0 0,-365.872 -273.6011,0 0,365.872 z"
         id="path46" /></clipPath><clipPath
       id="clipPath48"><path
         d="M 43.456,415.672 309.513,228.205 294.398,578.049 43.456,415.672 z"
         id="path50" /></clipPath><linearGradient
       x1="0"
       y1="0"
       x2="1"
       y2="0"
       id="linearGradient52"
       gradientUnits="userSpaceOnUse"
       gradientTransform="matrix(0,-349.84402,-349.84402,0,176.48434,578.04938)"
       spreadMethod="pad"><stop
         id="stop54"
         style="stop-color:#004c67;stop-opacity:1"
         offset="0" /><stop
         id="stop56"
         style="stop-color:#00aae7;stop-opacity:1"
         offset="1" /></linearGradient><clipPath
       id="clipPath76"><path
         d="m 81.5898,574.976 446.2432,0 0,-257.981 -446.2432,0 0,257.981 z"
         id="path78" /></clipPath><clipPath
       id="clipPath80"><path
         d="m 422.481,574.976 105.352,-257.981 -446.243,0 340.891,257.981 z"
         id="path82" /></clipPath><linearGradient
       x1="0"
       y1="0"
       x2="1"
       y2="0"
       id="linearGradient84"
       gradientUnits="userSpaceOnUse"
       gradientTransform="matrix(0,257.98068,257.98068,0,304.71133,316.9949)"
       spreadMethod="pad"><stop
         id="stop86"
         style="stop-color:#004c67;stop-opacity:1"
         offset="0" /><stop
         id="stop88"
         style="stop-color:#00aae7;stop-opacity:1"
         offset="1" /></linearGradient></defs><g
     transform="matrix(1.25,0,0,-1.25,-54.32,722.56)"
     id="g10"><g
       id="g12"><g
         clip-path="url(#clipPath16)"
         id="g14"><g
           id="g20"><g
             id="g22"><path
               d="M 178.257,273.528 559.964,371.725 315.498,555.367 178.257,273.528 z"
               id="path30"
               style="fill:url(#linearGradient24);stroke:none" /></g></g></g></g><g
       id="g32"><g
         clip-path="url(#clipPath36)"
         id="g34"><g
           id="g40"><g
             id="g42" /><g
             id="g58"><g
               clip-path="url(#clipPath44)"
               id="g60"><g
                 id="g62"><g
                   clip-path="url(#clipPath48)"
                   id="g64"><g
                     id="g66"><g
                       id="g68"><path
                         d="M 43.456,415.672 309.513,228.205 294.398,578.049 43.456,415.672 z"
                         id="path70"
                         style="fill:url(#linearGradient52);stroke:none" /></g></g></g></g></g></g></g><g
           id="g72"><g
             id="g74" /><g
             id="g90"><g
               clip-path="url(#clipPath76)"
               id="g92"><g
                 id="g94"><g
                   clip-path="url(#clipPath80)"
                   id="g96"><g
                     id="g98"><g
                       id="g100"><path
                         d="m 422.481,574.976 105.352,-257.981 -446.243,0 340.891,257.981 z"
                         id="path102"
                         style="fill:url(#linearGradient84);stroke:none" /></g></g></g></g></g></g></g><g
           transform="translate(130.6345,354.1069)"
           id="g104"><path
             d="m 0,0 54.741,0 0,17.979 -36.681,0 0,32.107 36.681,0 0,17.98 -36.681,0 0,32.106 36.681,0 0,17.979 L 0,118.151 0,0 z m 96.391,25.284 c 12.949,0 23.999,4.575 33.15,13.725 9.15,9.151 13.725,20.2 13.725,33.15 0,12.896 -4.575,23.92 -13.725,33.07 -9.151,9.15 -20.201,13.726 -33.15,13.726 l -19.344,0 0,-118.955 17.979,0 0,25.284 1.365,0 z m -1.365,75.932 1.365,0 c 8.026,0 14.875,-2.837 20.548,-8.509 5.671,-5.673 8.508,-12.521 8.508,-20.548 0,-8.026 -2.837,-14.877 -8.508,-20.548 -5.673,-5.672 -12.522,-8.508 -20.548,-8.508 l -1.365,0 0,58.113 z M 161.807,0 l 17.979,0 0,120.152 -17.979,0 0,-120.152 z m 33.627,100.172 29.538,0 0,-99.53 17.98,0 0,99.53 29.537,0 0,18.622 -77.055,0 0,-18.622 z m 138.48,-84.199 6.262,-16.375 19.263,0 -47.597,123.932 -47.678,-123.932 19.263,0 6.341,16.375 44.146,0 z m -22.072,57.39 15.17,-39.41 -30.341,0 15.171,39.41 z"
             id="path106"
             style="fill:#ffffff;fill-opacity:1;fill-rule:nonzero;stroke:none" /></g><g
           transform="translate(139.3016,339.6573)"
           id="g108"><path
             d="m 0,0 -8.405,0 0,-11.337 8.486,0 0,1.782 -6.495,0 0,3.044 5.685,0 0,1.782 -5.685,0 0,2.948 6.414,0 L 0,0 z m -3.854,0.94 1.975,1.862 -1.781,0.793 -1.717,-2.655 1.523,0 z M 12.681,-9.523 11.402,-8.227 C 10.43,-9.135 9.539,-9.701 8.147,-9.701 c -2.17,0 -3.742,1.813 -3.742,4.049 0,2.235 1.572,4.016 3.742,4.016 1.295,0 2.267,-0.567 3.174,-1.409 l 1.279,1.474 c -1.085,1.037 -2.348,1.765 -4.437,1.765 -3.434,0 -5.847,-2.639 -5.847,-5.879 0,-3.271 2.462,-5.846 5.766,-5.846 2.121,0 3.417,0.777 4.599,2.008 m 13.491,3.871 c 0,3.207 -2.429,5.846 -5.911,5.846 -3.482,0 -5.944,-2.672 -5.944,-5.879 0,-3.206 2.429,-5.846 5.912,-5.846 3.482,0 5.943,2.672 5.943,5.879 m -2.089,-0.033 c 0,-2.218 -1.571,-4.016 -3.822,-4.016 -2.252,0 -3.854,1.83 -3.854,4.049 0,2.219 1.57,4.016 3.822,4.016 2.251,0 3.854,-1.83 3.854,-4.049 m 4.875,-5.652 7.952,0 0,1.814 -5.96,0 0,9.523 -1.992,0 0,-11.337 z M 47.761,0 l -8.405,0 0,-11.337 8.486,0 0,1.782 -6.495,0 0,3.044 5.685,0 0,1.782 -5.685,0 0,2.948 6.414,0 0,1.781 z M 66,-5.652 C 66,-2.445 63.538,0 59.975,0 l -4.226,0 0,-11.337 4.226,0 c 3.563,0 6.025,2.478 6.025,5.685 m -2.089,-0.033 c 0,-2.235 -1.555,-3.838 -3.936,-3.838 l -2.235,0 0,7.709 2.235,0 c 2.381,0 3.936,-1.636 3.936,-3.871 m 4.049,1.944 0.21,-0.842 c 1.636,0.129 2.495,0.891 2.495,2.688 l 0,1.895 -2.155,0 0,-2.219 0.827,0 c 0.081,-0.842 -0.389,-1.344 -1.377,-1.522 m 5.669,-7.596 1.992,0 0,11.337 -1.992,0 0,-11.337 z M 86.941,-7.839 80.868,0 l -1.846,0 0,-11.337 1.959,0 0,8.066 6.252,-8.066 1.668,0 0,11.337 -1.96,0 0,-7.839 z m 15.354,-1.927 0,4.762 -4.827,0 0,-1.734 2.899,0 0,-2.121 c -0.696,-0.518 -1.668,-0.858 -2.737,-0.858 -2.315,0 -3.854,1.716 -3.854,4.065 0,2.202 1.587,4.016 3.677,4.016 1.44,0 2.299,-0.469 3.174,-1.215 l 1.262,1.507 c -1.165,0.988 -2.38,1.538 -4.356,1.538 -3.417,0 -5.847,-2.688 -5.847,-5.879 0,-3.32 2.333,-5.846 5.88,-5.846 2.008,0 3.611,0.809 4.729,1.765 M 113.664,0 l -8.405,0 0,-11.337 8.486,0 0,1.782 -6.495,0 0,3.044 5.685,0 0,1.782 -5.685,0 0,2.948 6.414,0 0,1.781 z m -3.855,0.94 1.976,1.862 -1.781,0.793 -1.717,-2.655 1.522,0 z m 14.593,-8.779 -6.073,7.839 -1.847,0 0,-11.337 1.96,0 0,8.066 6.251,-8.066 1.669,0 0,11.337 -1.96,0 0,-7.839 z m 5.36,-3.498 1.992,0 0,11.337 -1.992,0 0,-11.337 z M 143.561,0 l -8.405,0 0,-11.337 8.486,0 0,1.782 -6.494,0 0,3.044 5.684,0 0,1.782 -5.684,0 0,2.948 6.413,0 0,1.781 z m 12.341,0 -1.992,0 0,-6.527 c 0,-2.089 -1.085,-3.158 -2.85,-3.158 -1.782,0 -2.867,1.134 -2.867,3.239 l 0,6.446 -1.992,0 0,-6.527 c 0,-3.287 1.879,-4.988 4.826,-4.988 2.964,0 4.875,1.701 4.875,5.086 l 0,6.429 z m 12.73,-11.337 -3.061,4.292 c 1.587,0.437 2.705,1.571 2.705,3.45 0,2.218 -1.603,3.595 -4.211,3.595 l -5.053,0 0,-11.337 1.992,0 0,3.952 2.494,0 2.786,-3.952 2.348,0 z m -2.381,7.628 c 0,-1.166 -0.907,-1.911 -2.332,-1.911 l -2.915,0 0,3.806 2.899,0 c 1.474,0 2.348,-0.648 2.348,-1.895 m 6.527,0.745 c 0,0.761 0.681,1.36 1.846,1.36 1.037,0 2.058,-0.404 3.078,-1.165 l 1.068,1.506 c -1.149,0.923 -2.461,1.425 -4.113,1.425 -2.251,0 -3.871,-1.328 -3.871,-3.304 0,-2.105 1.361,-2.818 3.774,-3.401 2.105,-0.486 2.559,-0.923 2.559,-1.749 0,-0.875 -0.778,-1.442 -2.009,-1.442 -1.409,0 -2.494,0.534 -3.579,1.474 l -1.198,-1.425 c 1.36,-1.215 2.996,-1.814 4.728,-1.814 2.382,0 4.049,1.263 4.049,3.401 0,1.895 -1.246,2.754 -3.643,3.336 -2.17,0.519 -2.689,0.908 -2.689,1.798 M 195.406,0 l -8.405,0 0,-11.337 8.487,0 0,1.782 -6.495,0 0,3.044 5.684,0 0,1.782 -5.684,0 0,2.948 6.413,0 0,1.781 z m 10.738,-7.839 -6.073,7.839 -1.847,0 0,-11.337 1.961,0 0,8.066 6.251,-8.066 1.668,0 0,11.337 -1.96,0 0,-7.839 z m 10.53,-3.498 1.992,0 0,11.337 -1.992,0 0,-11.337 z m 13.313,3.498 -6.073,7.839 -1.847,0 0,-11.337 1.96,0 0,8.066 6.252,-8.066 1.668,0 0,11.337 -1.96,0 0,-7.839 z M 243.672,0 l -8.438,0 0,-11.337 1.993,0 0,4.616 5.716,0 0,1.814 -5.716,0 0,3.093 6.445,0 0,1.814 z m 13.815,-5.652 c 0,3.207 -2.429,5.846 -5.911,5.846 -3.482,0 -5.944,-2.672 -5.944,-5.879 0,-3.206 2.429,-5.846 5.912,-5.846 3.481,0 5.943,2.672 5.943,5.879 m -2.089,-0.033 c 0,-2.218 -1.571,-4.016 -3.822,-4.016 -2.252,0 -3.855,1.83 -3.855,4.049 0,2.219 1.571,4.016 3.823,4.016 2.251,0 3.854,-1.83 3.854,-4.049 m 14.495,-5.652 -3.061,4.292 c 1.587,0.437 2.705,1.571 2.705,3.45 0,2.218 -1.603,3.595 -4.211,3.595 l -5.053,0 0,-11.337 1.992,0 0,3.952 2.494,0 2.786,-3.952 2.348,0 z m -2.38,7.628 c 0,-1.166 -0.908,-1.911 -2.333,-1.911 l -2.915,0 0,3.806 2.899,0 c 1.474,0 2.349,-0.648 2.349,-1.895 m 13.992,0.503 0,-8.131 1.992,0 0,11.337 -2.121,0 -3.45,-5.361 -3.45,5.361 -2.121,0 0,-11.337 1.959,0 0,8.098 3.547,-5.312 0.065,0 3.579,5.345 z m 11.143,3.287 -1.847,0 -4.987,-11.418 2.04,0 1.166,2.737 5.361,0 1.15,-2.737 2.105,0 -4.988,11.418 z m 1.004,-6.916 -3.903,0 1.943,4.535 1.96,-4.535 z m 9.637,4.989 3.595,0 0,1.846 -9.2,0 0,-1.846 3.597,0 0,-9.491 2.008,0 0,9.491 z m 6.187,-9.491 1.992,0 0,11.337 -1.992,0 0,-11.337 z m 15.595,2.186 c 0.73,0.988 1.15,2.203 1.15,3.499 0,3.207 -2.428,5.846 -5.911,5.846 -3.482,0 -5.944,-2.672 -5.944,-5.879 0,-3.206 2.43,-5.846 5.912,-5.846 1.328,0 2.494,0.405 3.45,1.069 l 1.36,-1.215 1.279,1.425 -1.296,1.101 z m -2.817,0 c -0.535,-0.339 -1.199,-0.55 -1.944,-0.55 -2.251,0 -3.854,1.83 -3.854,4.049 0,2.219 1.57,4.016 3.822,4.016 2.251,0 3.854,-1.83 3.854,-4.049 0,-0.793 -0.194,-1.539 -0.583,-2.138 l -1.959,1.782 -1.28,-1.458 1.944,-1.652 z M 338.53,0 l -1.992,0 0,-6.527 c 0,-2.089 -1.085,-3.158 -2.85,-3.158 -1.782,0 -2.867,1.134 -2.867,3.239 l 0,6.446 -1.992,0 0,-6.527 c 0,-3.287 1.879,-4.988 4.826,-4.988 2.964,0 4.875,1.701 4.875,5.086 l 0,6.429 z m 11.515,0 -8.405,0 0,-11.337 8.486,0 0,1.782 -6.494,0 0,3.044 5.685,0 0,1.782 -5.685,0 0,2.948 6.413,0 0,1.781 z"
             id="path110"
             style="fill:#ffffff;fill-opacity:1;fill-rule:nonzero;stroke:none" /></g></g></g></g></svg>