<svg width="1024" height="1024" viewBox="0 0 1024 1024" fill="none" xmlns="http://www.w3.org/2000/svg">
<path d="M601.47 226.215L589.382 294.921H800.112L671.513 539.869L903.36 760.436H507.492L482.569 902.106L416.03 890.401L438.894 760.436H120.641L351.487 540.355L214.693 294.921H520.784L534.93 214.511L601.47 226.215ZM519.377 692.874H734.322L587.975 553.646L688.335 362.483H577.497L519.377 692.874ZM435.971 553.16L289.421 692.874H450.779L508.899 362.483H329.697L435.971 553.16ZM681.344 162.121L652.762 223.341L587.612 192.922L616.192 131.705L681.344 162.121ZM557.365 188.027L486.983 202.733L473.165 136.601L543.547 121.894L557.365 188.027Z" fill="black"/>
</svg>
